<mxfile host="app.diagrams.net" modified="2023-06-20T09:23:34.514Z" agent="Mozilla/5.0 (Windows NT 10.0; Win64; x64) AppleWebKit/537.36 (KHTML, like Gecko) Chrome/114.0.0.0 Safari/537.36" etag="fSsCDcEj9Ta--OuXGlhw" version="21.4.0" type="github">
  <diagram name="Page-1" id="noyESsa5x7OZtrXB0dku">
    <mxGraphModel dx="1313" dy="1339" grid="1" gridSize="10" guides="1" tooltips="1" connect="1" arrows="1" fold="1" page="1" pageScale="1" pageWidth="850" pageHeight="1100" math="0" shadow="0">
      <root>
        <mxCell id="0" />
        <mxCell id="1" parent="0" />
        <mxCell id="_MB7roTIRK6cVC3yzVGS-18" value="" style="edgeStyle=none;shape=link;rounded=0;orthogonalLoop=1;jettySize=auto;html=1;width=-0.8108108108108105;entryX=1;entryY=0.592;entryDx=0;entryDy=0;entryPerimeter=0;" parent="1" edge="1" target="4aoceYNehT1nNi53uhLn-89">
          <mxGeometry relative="1" as="geometry">
            <mxPoint y="-730" as="sourcePoint" />
            <mxPoint x="-100" y="-730" as="targetPoint" />
          </mxGeometry>
        </mxCell>
        <mxCell id="4aoceYNehT1nNi53uhLn-30" value="Profil_utilisateur" style="swimlane;whiteSpace=wrap;html=1;" parent="1" vertex="1">
          <mxGeometry x="1" y="-748" width="270" height="188" as="geometry" />
        </mxCell>
        <mxCell id="4aoceYNehT1nNi53uhLn-52" value="Id : long PK&lt;br&gt;Id_compétence_utilisateur : long FK&lt;br&gt;nom : varchar(255)&lt;br&gt;prénom : varchar(255)&lt;br&gt;e-mail : varchar(255)&lt;br&gt;entreprise : varchar(255)&lt;br&gt;image_profil : varchar(255)&lt;br&gt;rôle : varchar(7) -&amp;gt; Enum { &quot;mentor&quot;, &quot;mentoré&quot;}&lt;br&gt;description : varchar(255)&lt;br&gt;objectif : varchar(255)" style="text;html=1;strokeColor=none;fillColor=none;align=left;verticalAlign=middle;whiteSpace=wrap;rounded=1;fontStyle=0" parent="4aoceYNehT1nNi53uhLn-30" vertex="1">
          <mxGeometry y="24" width="260" height="155" as="geometry" />
        </mxCell>
        <mxCell id="4aoceYNehT1nNi53uhLn-40" value="Objectifs_mentorat" style="swimlane;whiteSpace=wrap;html=1;" parent="1" vertex="1">
          <mxGeometry x="-340" y="-657.62" width="210" height="100" as="geometry" />
        </mxCell>
        <mxCell id="4aoceYNehT1nNi53uhLn-65" value="Id : long PK&lt;br&gt;Id_compétences_requises : long FK&lt;br&gt;description : varchar(255)&lt;br&gt;objectif : varchar(255)" style="text;html=1;strokeColor=none;fillColor=none;align=left;verticalAlign=middle;whiteSpace=wrap;rounded=1;fontStyle=0" parent="4aoceYNehT1nNi53uhLn-40" vertex="1">
          <mxGeometry x="7" y="25" width="203" height="70" as="geometry" />
        </mxCell>
        <mxCell id="4aoceYNehT1nNi53uhLn-41" value="Contrat_mentorat" style="swimlane;whiteSpace=wrap;html=1;" parent="1" vertex="1">
          <mxGeometry x="41" y="-1000" width="220" height="140" as="geometry" />
        </mxCell>
        <mxCell id="4aoceYNehT1nNi53uhLn-86" value="Id : long PK&lt;br&gt;Id_profil_mentor : long FK&lt;br&gt;Id_profil_mentoré : long FK&lt;br&gt;description : varchar(255)&lt;br&gt;objectif : varchar(255)&lt;br&gt;attentes_partagées : varchar(255)&lt;br&gt;fréquence_session : varchar(255)&lt;br&gt;durée_contrat : varchar(255)}" style="text;html=1;strokeColor=none;fillColor=none;align=left;verticalAlign=middle;whiteSpace=wrap;rounded=1;fontStyle=0" parent="4aoceYNehT1nNi53uhLn-41" vertex="1">
          <mxGeometry x="1.25" y="24.5" width="200" height="115" as="geometry" />
        </mxCell>
        <mxCell id="4aoceYNehT1nNi53uhLn-43" value="Session_mentorat" style="swimlane;whiteSpace=wrap;html=1;startSize=23;" parent="1" vertex="1">
          <mxGeometry x="319" y="-713" width="206.5" height="118" as="geometry" />
        </mxCell>
        <mxCell id="4aoceYNehT1nNi53uhLn-90" value="Id : long PK&lt;br&gt;Id_objectif : long FK&lt;br&gt;id_profil_utilisateur : long FK&lt;br&gt;intitulé_session : varchar(255)&lt;br&gt;date : varchar(10)&lt;br&gt;heure : varchar(5)" style="text;html=1;strokeColor=none;fillColor=none;align=left;verticalAlign=middle;whiteSpace=wrap;rounded=1;fontStyle=0" parent="4aoceYNehT1nNi53uhLn-43" vertex="1">
          <mxGeometry x="1.75" y="39" width="203" height="61" as="geometry" />
        </mxCell>
        <mxCell id="4aoceYNehT1nNi53uhLn-44" value="Metriques_session" style="swimlane;whiteSpace=wrap;html=1;" parent="1" vertex="1">
          <mxGeometry x="261" y="-535" width="320" height="120" as="geometry" />
        </mxCell>
        <mxCell id="4aoceYNehT1nNi53uhLn-48" value="Tableau_résumé_session" style="swimlane;whiteSpace=wrap;html=1;" parent="1" vertex="1">
          <mxGeometry x="400" y="-980" width="203" height="70" as="geometry" />
        </mxCell>
        <mxCell id="4aoceYNehT1nNi53uhLn-49" value="Tableau_métriques" style="swimlane;whiteSpace=wrap;html=1;" parent="1" vertex="1">
          <mxGeometry x="374" y="-348" width="203" height="60" as="geometry" />
        </mxCell>
        <mxCell id="4aoceYNehT1nNi53uhLn-50" value="Résumé_session" style="swimlane;whiteSpace=wrap;html=1;" parent="1" vertex="1">
          <mxGeometry x="336" y="-853" width="260" height="88" as="geometry" />
        </mxCell>
        <mxCell id="4aoceYNehT1nNi53uhLn-99" value="Id : long PK&lt;br&gt;Id_session_mentorat : long FK&lt;br&gt;note : varchar(255)&lt;br&gt;retour_expérience : varchar(255)" style="text;html=1;strokeColor=none;fillColor=none;align=left;verticalAlign=middle;whiteSpace=wrap;rounded=1;fontStyle=0" parent="4aoceYNehT1nNi53uhLn-50" vertex="1">
          <mxGeometry x="2" y="24" width="242.5" height="64" as="geometry" />
        </mxCell>
        <mxCell id="4aoceYNehT1nNi53uhLn-66" value="Compétence_requises" style="swimlane;whiteSpace=wrap;html=1;" parent="1" vertex="1">
          <mxGeometry x="-770" y="-647.62" width="335" height="90" as="geometry" />
        </mxCell>
        <mxCell id="4aoceYNehT1nNi53uhLn-67" value="Id : long PK&lt;br&gt;compétence : varchar(255)&lt;br&gt;niveau_compétence: varchar(13) -&amp;gt; Enum { &quot;aucune&quot;, &quot;débutant&quot;, &quot;intermédiaire&quot;, &quot;avancé&quot;}" style="text;html=1;strokeColor=none;fillColor=none;align=left;verticalAlign=middle;whiteSpace=wrap;rounded=1;fontStyle=0" parent="4aoceYNehT1nNi53uhLn-66" vertex="1">
          <mxGeometry x="5" y="24" width="330" height="60" as="geometry" />
        </mxCell>
        <mxCell id="4aoceYNehT1nNi53uhLn-88" value="Compétence_utilisateur" style="swimlane;whiteSpace=wrap;html=1;" parent="1" vertex="1">
          <mxGeometry x="-415.25" y="-790" width="310" height="90" as="geometry" />
        </mxCell>
        <mxCell id="4aoceYNehT1nNi53uhLn-89" value="Id : long PK&lt;br&gt;compétence : varchar(255)&lt;br&gt;niveau_compétence: varchar(13) -&amp;gt; Enum { &quot;aucune&quot;, &quot;débutant&quot;, &quot;intermédiaire&quot;, &quot;avancé&quot;}" style="text;html=1;strokeColor=none;fillColor=none;align=left;verticalAlign=middle;whiteSpace=wrap;rounded=1;fontStyle=0" parent="4aoceYNehT1nNi53uhLn-88" vertex="1">
          <mxGeometry x="5" y="24" width="305" height="60" as="geometry" />
        </mxCell>
        <mxCell id="4aoceYNehT1nNi53uhLn-91" value="Objectif" style="swimlane;whiteSpace=wrap;html=1;" parent="1" vertex="1">
          <mxGeometry x="30" y="-374" width="260.5" height="86" as="geometry" />
        </mxCell>
        <mxCell id="4aoceYNehT1nNi53uhLn-92" value="Id : long PK&lt;br&gt;objectif : varchar(255)&lt;br&gt;statut : varchar(23) --&amp;gt;&amp;nbsp;Enum {&quot;A faire&quot;,&amp;nbsp; &lt;br&gt;&quot;En cours de réalisation&quot;, &quot;Terminé&quot;, &quot;Validé&quot;}&amp;nbsp;" style="text;html=1;strokeColor=none;fillColor=none;align=left;verticalAlign=middle;whiteSpace=wrap;rounded=1;fontStyle=0" parent="1" vertex="1">
          <mxGeometry x="37" y="-347" width="253" height="52" as="geometry" />
        </mxCell>
        <mxCell id="4aoceYNehT1nNi53uhLn-96" value="Id : long PK&lt;br&gt;Id_session : long FK&lt;br&gt;objectif_réalisé : boolean&amp;nbsp;&lt;br&gt;satisfaction : varchar(1) -&amp;gt; Enum {&quot;0&quot;, &quot;1&quot;, &quot;2&quot;, &quot;3&quot;, &quot;4&quot;, &quot;5&quot;}&lt;br&gt;amélioration_personnelle : varchar(1)&amp;nbsp;-&amp;gt; Enum {&quot;0&quot;, &quot;1&quot;, &quot;2&quot;, &quot;3&quot;, &quot;4&quot;, &quot;5&quot;}" style="text;html=1;strokeColor=none;fillColor=none;align=left;verticalAlign=middle;whiteSpace=wrap;rounded=1;fontStyle=0" parent="1" vertex="1">
          <mxGeometry x="264" y="-512" width="313" height="90" as="geometry" />
        </mxCell>
        <mxCell id="4aoceYNehT1nNi53uhLn-97" value="Tableau_KanBan" style="swimlane;whiteSpace=wrap;html=1;" parent="1" vertex="1">
          <mxGeometry x="30" y="-490" width="203" height="60" as="geometry" />
        </mxCell>
        <mxCell id="4aoceYNehT1nNi53uhLn-98" value="Id : long PK&lt;br&gt;Id_objectif : long FK" style="text;html=1;strokeColor=none;fillColor=none;align=left;verticalAlign=middle;whiteSpace=wrap;rounded=1;fontStyle=0" parent="4aoceYNehT1nNi53uhLn-97" vertex="1">
          <mxGeometry x="3.5" y="27" width="203" height="30" as="geometry" />
        </mxCell>
        <mxCell id="_MB7roTIRK6cVC3yzVGS-2" value="Id : long PK&lt;br&gt;Id_résumé_session : long FK" style="text;html=1;strokeColor=none;fillColor=none;align=left;verticalAlign=middle;whiteSpace=wrap;rounded=1;fontStyle=0" parent="1" vertex="1">
          <mxGeometry x="410" y="-950" width="203" height="38" as="geometry" />
        </mxCell>
        <mxCell id="_MB7roTIRK6cVC3yzVGS-19" value="0-*" style="text;html=1;strokeColor=none;fillColor=none;align=left;verticalAlign=middle;whiteSpace=wrap;rounded=1;fontStyle=0" parent="1" vertex="1">
          <mxGeometry x="-105.25" y="-748" width="20" height="18" as="geometry" />
        </mxCell>
        <mxCell id="_MB7roTIRK6cVC3yzVGS-20" value="1" style="text;html=1;strokeColor=none;fillColor=none;align=left;verticalAlign=middle;whiteSpace=wrap;rounded=1;fontStyle=0" parent="1" vertex="1">
          <mxGeometry x="-19" y="-730" width="20" height="18" as="geometry" />
        </mxCell>
        <mxCell id="_MB7roTIRK6cVC3yzVGS-21" value="" style="edgeStyle=none;shape=link;rounded=0;orthogonalLoop=1;jettySize=auto;html=1;width=-0.8108108108108105;exitX=1.01;exitY=0.371;exitDx=0;exitDy=0;entryX=0;entryY=0.75;entryDx=0;entryDy=0;exitPerimeter=0;" parent="1" edge="1" target="4aoceYNehT1nNi53uhLn-52" source="4aoceYNehT1nNi53uhLn-65">
          <mxGeometry relative="1" as="geometry">
            <mxPoint x="-70" y="-557.616" as="sourcePoint" />
            <mxPoint x="-69.75" y="-639.24" as="targetPoint" />
          </mxGeometry>
        </mxCell>
        <mxCell id="_MB7roTIRK6cVC3yzVGS-22" value="1" style="text;html=1;strokeColor=none;fillColor=none;align=left;verticalAlign=middle;whiteSpace=wrap;rounded=1;fontStyle=0" parent="1" vertex="1">
          <mxGeometry x="-20" y="-630" width="20" height="18" as="geometry" />
        </mxCell>
        <mxCell id="_MB7roTIRK6cVC3yzVGS-23" value="0-1" style="text;html=1;strokeColor=none;fillColor=none;align=left;verticalAlign=middle;whiteSpace=wrap;rounded=1;fontStyle=0" parent="1" vertex="1">
          <mxGeometry x="-130" y="-600" width="24.75" height="18" as="geometry" />
        </mxCell>
        <mxCell id="_MB7roTIRK6cVC3yzVGS-24" value="" style="edgeStyle=none;shape=link;rounded=0;orthogonalLoop=1;jettySize=auto;html=1;width=-0.8108108108108105;exitX=1;exitY=0.5;exitDx=0;exitDy=0;" parent="1" source="4aoceYNehT1nNi53uhLn-67" edge="1">
          <mxGeometry relative="1" as="geometry">
            <mxPoint x="-600" y="-668" as="sourcePoint" />
            <mxPoint x="-340" y="-594" as="targetPoint" />
          </mxGeometry>
        </mxCell>
        <mxCell id="_MB7roTIRK6cVC3yzVGS-25" value="1" style="text;html=1;strokeColor=none;fillColor=none;align=left;verticalAlign=middle;whiteSpace=wrap;rounded=1;fontStyle=0" parent="1" vertex="1">
          <mxGeometry x="-360" y="-616" width="20" height="18" as="geometry" />
        </mxCell>
        <mxCell id="_MB7roTIRK6cVC3yzVGS-26" value="0-*" style="text;html=1;strokeColor=none;fillColor=none;align=left;verticalAlign=middle;whiteSpace=wrap;rounded=1;fontStyle=0" parent="1" vertex="1">
          <mxGeometry x="-425" y="-591" width="24.75" height="18" as="geometry" />
        </mxCell>
        <mxCell id="_MB7roTIRK6cVC3yzVGS-27" value="" style="edgeStyle=none;shape=link;rounded=0;orthogonalLoop=1;jettySize=auto;html=1;width=-0.8108108108108105;entryX=0.125;entryY=1.01;entryDx=0;entryDy=0;entryPerimeter=0;exitX=0.25;exitY=0;exitDx=0;exitDy=0;" parent="1" source="4aoceYNehT1nNi53uhLn-30" target="4aoceYNehT1nNi53uhLn-86" edge="1">
          <mxGeometry relative="1" as="geometry">
            <mxPoint x="70" y="-750" as="sourcePoint" />
            <mxPoint x="331" y="-720" as="targetPoint" />
          </mxGeometry>
        </mxCell>
        <mxCell id="_MB7roTIRK6cVC3yzVGS-28" value="1" style="text;html=1;strokeColor=none;fillColor=none;align=left;verticalAlign=middle;whiteSpace=wrap;rounded=1;fontStyle=0" parent="1" vertex="1">
          <mxGeometry x="71" y="-766" width="20" height="18" as="geometry" />
        </mxCell>
        <mxCell id="_MB7roTIRK6cVC3yzVGS-29" value="0-1" style="text;html=1;strokeColor=none;fillColor=none;align=left;verticalAlign=middle;whiteSpace=wrap;rounded=1;fontStyle=0" parent="1" vertex="1">
          <mxGeometry x="41" y="-860" width="30" height="18" as="geometry" />
        </mxCell>
        <mxCell id="_MB7roTIRK6cVC3yzVGS-30" value="" style="edgeStyle=none;shape=link;rounded=0;orthogonalLoop=1;jettySize=auto;html=1;width=-0.8108108108108105;entryX=-0.007;entryY=0.346;entryDx=0;entryDy=0;entryPerimeter=0;" parent="1" target="4aoceYNehT1nNi53uhLn-90" edge="1">
          <mxGeometry relative="1" as="geometry">
            <mxPoint x="270" y="-653" as="sourcePoint" />
            <mxPoint x="331" y="-600" as="targetPoint" />
          </mxGeometry>
        </mxCell>
        <mxCell id="_MB7roTIRK6cVC3yzVGS-31" value="2" style="text;html=1;strokeColor=none;fillColor=none;align=left;verticalAlign=middle;whiteSpace=wrap;rounded=1;fontStyle=0" parent="1" vertex="1">
          <mxGeometry x="271" y="-648" width="20" height="18" as="geometry" />
        </mxCell>
        <mxCell id="_MB7roTIRK6cVC3yzVGS-32" value="0-1" style="text;html=1;strokeColor=none;fillColor=none;align=left;verticalAlign=middle;whiteSpace=wrap;rounded=1;fontStyle=0" parent="1" vertex="1">
          <mxGeometry x="115.25" y="-514" width="30" height="18" as="geometry" />
        </mxCell>
        <mxCell id="_MB7roTIRK6cVC3yzVGS-33" value="" style="edgeStyle=none;shape=link;rounded=0;orthogonalLoop=1;jettySize=auto;html=1;width=-0.8108108108108105;entryX=0.557;entryY=0.012;entryDx=0;entryDy=0;entryPerimeter=0;" parent="1" target="4aoceYNehT1nNi53uhLn-97" edge="1">
          <mxGeometry relative="1" as="geometry">
            <mxPoint x="143" y="-560" as="sourcePoint" />
            <mxPoint x="371" y="-385" as="targetPoint" />
          </mxGeometry>
        </mxCell>
        <mxCell id="_MB7roTIRK6cVC3yzVGS-34" value="2" style="text;html=1;strokeColor=none;fillColor=none;align=left;verticalAlign=middle;whiteSpace=wrap;rounded=1;fontStyle=0" parent="1" vertex="1">
          <mxGeometry x="148.5" y="-560" width="30" height="18" as="geometry" />
        </mxCell>
        <mxCell id="_MB7roTIRK6cVC3yzVGS-35" value="1" style="text;html=1;strokeColor=none;fillColor=none;align=left;verticalAlign=middle;whiteSpace=wrap;rounded=1;fontStyle=0" parent="1" vertex="1">
          <mxGeometry x="460" y="-765" width="30" height="18" as="geometry" />
        </mxCell>
        <mxCell id="_MB7roTIRK6cVC3yzVGS-36" value="" style="edgeStyle=none;shape=link;rounded=0;orthogonalLoop=1;jettySize=auto;html=1;width=-0.8108108108108105;" parent="1" edge="1">
          <mxGeometry relative="1" as="geometry">
            <mxPoint x="140.5" y="-374" as="sourcePoint" />
            <mxPoint x="140.75" y="-430" as="targetPoint" />
          </mxGeometry>
        </mxCell>
        <mxCell id="_MB7roTIRK6cVC3yzVGS-37" value="1" style="text;html=1;strokeColor=none;fillColor=none;align=left;verticalAlign=middle;whiteSpace=wrap;rounded=1;fontStyle=0" parent="1" vertex="1">
          <mxGeometry x="145.25" y="-428" width="20" height="18" as="geometry" />
        </mxCell>
        <mxCell id="_MB7roTIRK6cVC3yzVGS-38" value="0-*" style="text;html=1;strokeColor=none;fillColor=none;align=left;verticalAlign=middle;whiteSpace=wrap;rounded=1;fontStyle=0" parent="1" vertex="1">
          <mxGeometry x="145.75" y="-392" width="24.75" height="18" as="geometry" />
        </mxCell>
        <mxCell id="4aoceYNehT1nNi53uhLn-105" value="Id : long PK&lt;br&gt;Id_metriques_session&amp;nbsp;: long FK" style="text;html=1;strokeColor=none;fillColor=none;align=left;verticalAlign=middle;whiteSpace=wrap;rounded=1;fontStyle=0" parent="1" vertex="1">
          <mxGeometry x="374" y="-322" width="203" height="30" as="geometry" />
        </mxCell>
        <mxCell id="FC4678V7Qu3IlDnJOMj9-2" value="1" style="text;html=1;strokeColor=none;fillColor=none;align=left;verticalAlign=middle;whiteSpace=wrap;rounded=1;fontStyle=0" parent="1" vertex="1">
          <mxGeometry x="441" y="-591" width="20" height="18" as="geometry" />
        </mxCell>
        <mxCell id="FC4678V7Qu3IlDnJOMj9-3" value="1" style="text;html=1;strokeColor=none;fillColor=none;align=left;verticalAlign=middle;whiteSpace=wrap;rounded=1;fontStyle=0" parent="1" vertex="1">
          <mxGeometry x="465" y="-550" width="20" height="18" as="geometry" />
        </mxCell>
        <mxCell id="FC4678V7Qu3IlDnJOMj9-4" value="" style="edgeStyle=none;shape=link;rounded=0;orthogonalLoop=1;jettySize=auto;html=1;width=-0.8108108108108105;entryX=0.233;entryY=-0.022;entryDx=0;entryDy=0;exitX=0.5;exitY=1;exitDx=0;exitDy=0;entryPerimeter=0;" parent="1" source="4aoceYNehT1nNi53uhLn-44" target="4aoceYNehT1nNi53uhLn-49" edge="1">
          <mxGeometry relative="1" as="geometry">
            <mxPoint x="432.5" y="-239.38" as="sourcePoint" />
            <mxPoint x="532.5" y="-241.38" as="targetPoint" />
          </mxGeometry>
        </mxCell>
        <mxCell id="FC4678V7Qu3IlDnJOMj9-5" value="0-*" style="text;html=1;strokeColor=none;fillColor=none;align=left;verticalAlign=middle;whiteSpace=wrap;rounded=1;fontStyle=0" parent="1" vertex="1">
          <mxGeometry x="431" y="-414" width="20" height="18" as="geometry" />
        </mxCell>
        <mxCell id="FC4678V7Qu3IlDnJOMj9-6" value="1" style="text;html=1;strokeColor=none;fillColor=none;align=left;verticalAlign=middle;whiteSpace=wrap;rounded=1;fontStyle=0" parent="1" vertex="1">
          <mxGeometry x="431" y="-369" width="30" height="18" as="geometry" />
        </mxCell>
        <mxCell id="FC4678V7Qu3IlDnJOMj9-8" value="" style="edgeStyle=none;shape=link;rounded=0;orthogonalLoop=1;jettySize=auto;html=1;width=-0.8108108108108105;entryX=0.572;entryY=1.001;entryDx=0;entryDy=0;exitX=0.766;exitY=0.006;exitDx=0;exitDy=0;exitPerimeter=0;entryPerimeter=0;" parent="1" source="4aoceYNehT1nNi53uhLn-43" edge="1" target="4aoceYNehT1nNi53uhLn-99">
          <mxGeometry relative="1" as="geometry">
            <mxPoint x="586" y="-637" as="sourcePoint" />
            <mxPoint x="682" y="-740" as="targetPoint" />
          </mxGeometry>
        </mxCell>
        <mxCell id="FC4678V7Qu3IlDnJOMj9-9" value="0-*" style="text;html=1;strokeColor=none;fillColor=none;align=left;verticalAlign=middle;whiteSpace=wrap;rounded=1;fontStyle=0" parent="1" vertex="1">
          <mxGeometry x="297" y="-672" width="30" height="18" as="geometry" />
        </mxCell>
        <mxCell id="FC4678V7Qu3IlDnJOMj9-10" value="1" style="text;html=1;strokeColor=none;fillColor=none;align=left;verticalAlign=middle;whiteSpace=wrap;rounded=1;fontStyle=0" parent="1" vertex="1">
          <mxGeometry x="480" y="-731" width="30" height="18" as="geometry" />
        </mxCell>
        <mxCell id="FC4678V7Qu3IlDnJOMj9-12" value="0-*" style="text;html=1;strokeColor=none;fillColor=none;align=left;verticalAlign=middle;whiteSpace=wrap;rounded=1;fontStyle=0" parent="1" vertex="1">
          <mxGeometry x="510" y="-871" width="30" height="18" as="geometry" />
        </mxCell>
        <mxCell id="FC4678V7Qu3IlDnJOMj9-13" value="" style="edgeStyle=none;shape=link;rounded=0;orthogonalLoop=1;jettySize=auto;html=1;width=-0.8108108108108105;entryX=0.5;entryY=1;entryDx=0;entryDy=0;exitX=0.622;exitY=0;exitDx=0;exitDy=0;exitPerimeter=0;" parent="1" source="4aoceYNehT1nNi53uhLn-50" target="4aoceYNehT1nNi53uhLn-48" edge="1">
          <mxGeometry relative="1" as="geometry">
            <mxPoint x="420" y="-814" as="sourcePoint" />
            <mxPoint x="525" y="-897" as="targetPoint" />
          </mxGeometry>
        </mxCell>
        <mxCell id="FC4678V7Qu3IlDnJOMj9-14" value="1" style="text;html=1;strokeColor=none;fillColor=none;align=left;verticalAlign=middle;whiteSpace=wrap;rounded=1;fontStyle=0" parent="1" vertex="1">
          <mxGeometry x="420" y="-809" width="30" height="18" as="geometry" />
        </mxCell>
        <mxCell id="FC4678V7Qu3IlDnJOMj9-18" value="1" style="text;html=1;strokeColor=none;fillColor=none;align=left;verticalAlign=middle;whiteSpace=wrap;rounded=1;fontStyle=0" parent="1" vertex="1">
          <mxGeometry x="510" y="-909" width="30" height="18" as="geometry" />
        </mxCell>
        <mxCell id="_MFZLOnCyGNXbBU_QRst-1" value="" style="edgeStyle=none;shape=link;rounded=0;orthogonalLoop=1;jettySize=auto;html=1;width=-0.8108108108108105;" parent="1" edge="1">
          <mxGeometry relative="1" as="geometry">
            <mxPoint x="240" y="-750" as="sourcePoint" />
            <mxPoint x="240" y="-860" as="targetPoint" />
          </mxGeometry>
        </mxCell>
        <mxCell id="_MFZLOnCyGNXbBU_QRst-2" value="1" style="text;html=1;strokeColor=none;fillColor=none;align=left;verticalAlign=middle;whiteSpace=wrap;rounded=1;fontStyle=0" parent="1" vertex="1">
          <mxGeometry x="251" y="-766" width="20" height="18" as="geometry" />
        </mxCell>
        <mxCell id="_MFZLOnCyGNXbBU_QRst-3" value="0-1" style="text;html=1;strokeColor=none;fillColor=none;align=left;verticalAlign=middle;whiteSpace=wrap;rounded=1;fontStyle=0" parent="1" vertex="1">
          <mxGeometry x="251" y="-860" width="30" height="18" as="geometry" />
        </mxCell>
      </root>
    </mxGraphModel>
  </diagram>
</mxfile>
